<?xml version="1.0" encoding="UTF-8"?>
<!DOCTYPE svg PUBLIC "-//W3C//DTD SVG 1.1//EN" "http://www.w3.org/Graphics/SVG/1.1/DTD/svg11.dtd">
<svg xmlns="http://www.w3.org/2000/svg" version="1.1" width="504px" height="495px" style="shape-rendering:geometricPrecision; text-rendering:geometricPrecision; image-rendering:optimizeQuality; fill-rule:evenodd; clip-rule:evenodd" xmlns:xlink="http://www.w3.org/1999/xlink">
<g><path style="opacity:0.98" fill="#1a6aa8" d="M 330.5,20.5 C 381.168,20.3333 431.834,20.5 482.5,21C 488.981,28.304 490.148,36.4706 486,45.5C 484.833,46.6667 483.667,47.8333 482.5,49C 468.025,48.4937 454.358,51.4937 441.5,58C 433.801,64.2245 427.635,71.7245 423,80.5C 373.187,204.947 323.187,329.28 273,453.5C 272.009,452.57 271.509,451.404 271.5,450C 274.333,405.84 277.166,361.673 280,317.5C 312.441,236.849 344.108,155.849 375,74.5C 376.652,68.0357 375.152,62.5357 370.5,58C 365.466,55.2107 360.132,53.2107 354.5,52C 346.199,50.4482 337.866,49.1148 329.5,48C 324.972,42.6571 323.472,36.4904 325,29.5C 325.794,25.8707 327.628,22.8707 330.5,20.5 Z"/></g>
<g><path style="opacity:0.997" fill="#2196f2" d="M 20.5,21.5 C 89.8341,21.3333 159.167,21.5 228.5,22C 233.589,28.4276 234.756,35.5942 232,43.5C 231.215,45.286 230.049,46.786 228.5,48C 215.682,48.015 203.016,49.3484 190.5,52C 180.675,54.4756 177.175,60.6423 180,70.5C 208.272,152.651 236.939,234.651 266,316.5C 263.874,365.512 261.374,414.512 258.5,463.5C 251.159,463.666 243.826,463.5 236.5,463C 232.667,460.5 229.5,457.333 227,453.5C 176.575,325.883 125.575,198.549 74,71.5C 66.6847,60.5808 56.518,53.7474 43.5,51C 35.8296,49.5932 28.163,48.2599 20.5,47C 13.9725,38.5146 13.9725,30.0146 20.5,21.5 Z"/></g>
<g><path style="opacity:0.11" fill="#1263a4" d="M 279.5,311.5 C 280.833,312.167 280.833,312.167 279.5,311.5 Z"/></g>
</svg>
